# xmcd
#
# Track frame offsets:
#	150
#	16997
#	37608
#	53417
#	73854
#	91818
#	115498
#	137969
#	160054
#	179939
#	197882
#	214952
#
# Disc length: 3101 seconds
#
# Revision: 1
# Processed by: cddbd v1.5.1PL0 Copyright (c) Steve Scherf et al.
# Submitted via: EasyCDDAExtractor 7.1.1.1
#
DISCID=ab0c1b0c
DTITLE=Ray Charles - Genius Loves Company
DYEAR=1900
DGENRE=
TTITLE0=Crazy Love [Live]
TTITLE1=Do I Ever Cross Your Mind (With Bonnie Raitt)
TTITLE2=Fever (With Natalie Cole)
TTITLE3=Heaven Help Us All (With Gladys Knight)
TTITLE4=Here We Go Again (With Norah Jones)
TTITLE5=Hey Girl (With Michael Mcdonald)
TTITLE6=It Was A Very Good Year (With Willie Nelson)
TTITLE7=Over The Rainbow (With Johnny Mathis)
TTITLE8=Sinner's Prayer (with B-B- King)
TTITLE9=Sorry Seems To Be Hardest Word (With Elton John)
TTITLE10=Sweet Potato Pie (With James Taylor)
TTITLE11=You Don't Know Me (With Diana Krall)
EXTD=
EXTT0=
EXTT1=
EXTT2=
EXTT3=
EXTT4=
EXTT5=
EXTT6=
EXTT7=
EXTT8=
EXTT9=
EXTT10=
EXTT11=
PLAYORDER=
